<svg xmlns="http://www.w3.org/2000/svg" viewBox="0 0 32 32" width="32" height="32">
  <defs>
    <!-- Gold gradient for background -->
    <radialGradient id="bgGradient" cx="0.3" cy="0.3" r="0.8">
      <stop offset="0%" stop-color="#B8860B"/>
      <stop offset="50%" stop-color="#8B6914"/>
      <stop offset="100%" stop-color="#4A3C0A"/>
    </radialGradient>
    
    <!-- Bright gold gradient for letters -->
    <linearGradient id="textGradient" x1="0%" y1="0%" x2="100%" y2="100%">
      <stop offset="0%" stop-color="#FFD700"/>
      <stop offset="30%" stop-color="#FFC107"/>
      <stop offset="70%" stop-color="#FF8F00"/>
      <stop offset="100%" stop-color="#FFD700"/>
    </linearGradient>
  </defs>
  
  <!-- Background circle -->
  <circle cx="16" cy="16" r="15" fill="url(#bgGradient)" stroke="#2C1810" stroke-width="2"/>
  
  <!-- Letter B -->
  <path d="M8 8 L8 24 L15 24 Q18 24 18 21 Q18 19 16 19 Q18 19 18 16 Q18 13 15 13 L8 13 Z M11 11 L14 11 Q15 11 15 13 Q15 15 14 15 L11 15 Z M11 17 L15 17 Q16 17 16 19 Q16 21 15 21 L11 21 Z" 
        fill="url(#textGradient)" 
        stroke="#8B4513" 
        stroke-width="0.5"/>
  
  <!-- Letter V -->
  <path d="M19 8 L21.5 20 L24 8 L26 8 L22.5 24 L20.5 24 L17 8 Z" 
        fill="url(#textGradient)" 
        stroke="#8B4513" 
        stroke-width="0.5"/>
</svg> 